{"title":"Camp.Nowhere.1994.BRRip.XviD.MP3-RARBG","uid":12226451,"size":1299501010,"categoryP":"video","categoryS":"movies","magnet":"?xt=urn:btih:cc87c4b521d6555f54338c5b9ace61db7cf4df7c&amp;dn=Camp.Nowhere.1994.BRRip.XviD.MP3-RARBG&amp;tr=udp%3A%2F%2Ftracker.openbittorrent.com%3A80&amp;tr=udp%3A%2F%2Fopen.demonii.com%3A1337&amp;tr=udp%3A%2F%2Ftracker.coppersurfer.tk%3A6969&amp;tr=udp%3A%2F%2Fexodus.desync.com%3A6969","seeders":0,"leechers":0,"uploader":null,"files":4,"time":1439483484,"description":"Video\nID                                       : 0\nFormat                                   : MPEG-4 Visual\nFormat profile                           : Simple@L5\nFormat settings, BVOP                    : No\nFormat settings, QPel                    : No\nFormat settings, GMC                     : No warppoints\nFormat settings, Matrix                  : Default (H.263)\nCodec ID                                 : XVID\nCodec ID/Hint                            : XviD\nDuration                                 : 1h 35mn\nBit rate                                 : 1 600 Kbps\nWidth                                    : 720 pixels\nHeight                                   : 400 pixels\nDisplay aspect ratio                     : 16:9\nFrame rate                               : 23.976 fps\nColor space                              : YUV\nChroma subsampling                       : 4:2:0\nBit depth                                : 8 bits\nScan type                                : Progressive\nCompression mode                         : Lossy\nBits/(Pixel*Frame)                       : 0.232\nStream size                              : 1.07 GiB (89%)\nTitle                                    : RARBG.COM - Camp.Nowhere.1994.BRRip.XviD.MP3-RARBG\nWriting library                          : Lavc56.19.100\n\nAudio\nID                                       : 1\nFormat                                   : MPEG Audio\nFormat version                           : Version 1\nFormat profile                           : Layer 3\nMode                                     : Joint stereo\nCodec ID                                 : 55\nCodec ID/Hint                            : MP3\nDuration                                 : 1h 35mn\nBit rate mode                            : Constant\nBit rate                                 : 192 Kbps\nChannel(s)                               : 2 channels\nSampling rate                            : 48.0 KHz\nCompression mode                         : Lossy\nStream size                              : 132 MiB (11%)\nAlignment                                : Aligned on interleaves\nInterleave, duration                     : 24 ms (0.58 video frame)\nInterleave, preload duration             : 24 ms\nTitle                                    : RARBG.COM - Camp.Nowhere.1994.BRRip.XviD.MP3-RARBG","torrent":{"xt":"urn:btih:cc87c4b521d6555f54338c5b9ace61db7cf4df7c","amp;dn":"Camp.Nowhere.1994.BRRip.XviD.MP3-RARBG","amp;tr":["udp%3A%2F%2Ftracker.openbittorrent.com%3A80","udp%3A%2F%2Fopen.demonii.com%3A1337","udp%3A%2F%2Ftracker.coppersurfer.tk%3A6969","udp%3A%2F%2Fexodus.desync.com%3A6969"],"infoHash":"cc87c4b521d6555f54338c5b9ace61db7cf4df7c","infoHashBuffer":{"type":"Buffer","data":[204,135,196,181,33,214,85,95,84,51,140,91,154,206,97,219,124,244,223,124]},"announce":[],"urlList":[]}}